<?xml version="1.0" standalone="no"?>
<!DOCTYPE svg PUBLIC "-//W3C//DTD SVG 20010904//EN"
 "http://www.w3.org/TR/2001/REC-SVG-20010904/DTD/svg10.dtd">
<svg version="1.0" xmlns="http://www.w3.org/2000/svg"
 width="520.000000pt" height="520.000000pt" viewBox="0 0 520.000000 520.000000"
 preserveAspectRatio="xMidYMid meet">
<metadata>
Created by potrace 1.11, written by Peter Selinger 2001-2013
</metadata>
<g transform="translate(0.000000,520.000000) scale(0.100000,-0.100000)"
fill="#000000" stroke="none">
<path d="M2574 5178 c-3 -4 -14 -5 -26 -3 -21 4 -50 -2 -120 -27 -15 -6 -31
-10 -35 -10 -4 0 -25 -9 -45 -19 -21 -10 -44 -19 -53 -19 -8 0 -15 -4 -15 -8
0 -4 -8 -8 -18 -9 -11 -1 -36 -13 -57 -27 -21 -14 -44 -26 -51 -26 -8 0 -14
-7 -14 -16 0 -8 -4 -13 -9 -10 -7 5 -73 -35 -148 -89 -8 -5 -74 -68 -146 -140
-73 -71 -161 -152 -197 -180 -35 -27 -71 -57 -80 -65 -42 -38 -117 -90 -130
-90 -5 0 -10 -4 -10 -9 0 -5 -8 -12 -17 -15 -10 -3 -33 -19 -52 -35 -19 -17
-38 -28 -41 -26 -8 5 -91 -33 -112 -52 -10 -9 -18 -13 -18 -9 0 4 -16 -9 -37
-29 -20 -19 -39 -33 -42 -30 -8 8 -149 -142 -168 -179 -9 -17 -17 -40 -17 -52
-1 -11 -14 -33 -29 -50 -16 -16 -44 -55 -64 -86 -20 -32 -40 -58 -44 -58 -5 0
-9 -5 -9 -11 0 -6 -9 -24 -21 -40 -11 -16 -17 -29 -13 -29 4 0 -1 -9 -11 -20
-10 -11 -14 -20 -9 -20 5 0 1 -5 -9 -11 -9 -5 -17 -19 -17 -29 0 -11 -3 -20
-7 -20 -5 0 -13 -10 -19 -23 -25 -51 -50 -92 -69 -112 -11 -12 -29 -34 -40
-49 -11 -16 -25 -34 -32 -41 -7 -7 -9 -15 -6 -19 4 -3 2 -6 -3 -6 -6 0 -28
-24 -49 -52 -22 -29 -48 -62 -57 -72 -10 -11 -18 -25 -18 -30 0 -6 -9 -17 -20
-24 -11 -7 -20 -18 -20 -26 0 -7 -9 -23 -20 -36 -11 -13 -20 -28 -20 -35 0 -7
-9 -20 -20 -30 -11 -10 -18 -20 -15 -23 5 -5 -44 -93 -57 -102 -4 -3 -9 -15
-11 -25 -1 -11 -7 -27 -12 -35 -10 -16 -33 -74 -40 -100 -2 -8 -4 -15 -5 -15
-3 0 -11 -40 -16 -75 -8 -63 -3 -221 10 -280 6 -28 68 -182 76 -190 3 -3 21
-35 40 -72 19 -37 38 -68 43 -68 4 0 7 -5 7 -10 0 -11 78 -129 122 -184 13
-16 86 -93 163 -170 128 -128 200 -216 178 -216 -4 0 -3 -4 3 -8 13 -8 46 -69
51 -92 2 -8 5 -27 7 -42 5 -33 25 -71 43 -81 7 -4 24 -29 37 -55 25 -49 199
-236 210 -225 3 4 6 1 6 -5 0 -7 15 -18 33 -25 17 -8 100 -81 182 -163 83 -82
178 -172 212 -199 35 -28 63 -53 63 -57 0 -5 5 -8 10 -8 9 0 73 -47 150 -110
14 -11 36 -28 50 -37 14 -9 33 -26 43 -36 9 -11 17 -17 17 -14 0 7 31 -18 88
-70 19 -18 38 -33 41 -33 3 0 18 -10 33 -23 14 -12 36 -30 47 -39 12 -10 26
-18 31 -18 6 0 10 -4 10 -10 0 -5 6 -10 14 -10 8 0 22 -8 32 -17 10 -10 18
-16 18 -14 1 2 18 -4 40 -13 21 -9 44 -16 50 -16 7 0 16 -4 22 -9 10 -10 114
-43 114 -36 0 2 17 -2 38 -8 20 -7 44 -13 52 -12 8 1 20 -2 26 -7 13 -10 184
-6 184 3 0 4 15 3 34 -1 90 -20 225 12 346 81 19 11 43 23 53 26 9 3 17 9 17
14 0 5 6 9 13 9 7 0 34 19 59 43 26 23 69 62 97 87 28 24 48 46 46 49 -3 2 5
12 17 22 11 11 17 19 13 19 -4 0 2 9 14 19 12 11 21 21 20 23 -5 7 38 67 44
61 4 -3 7 2 7 12 0 9 15 35 33 57 65 79 290 300 308 303 11 2 26 11 35 19 8 9
19 16 24 16 4 0 33 24 63 53 30 30 74 69 98 88 24 18 61 50 81 70 20 21 47 44
59 52 13 10 22 27 23 45 1 17 4 28 8 26 9 -6 198 181 198 196 0 8 3 10 6 7 7
-7 25 11 72 72 15 19 39 46 55 61 15 15 27 32 27 38 0 6 9 14 21 17 11 4 18 9
15 12 -5 6 32 56 74 99 11 12 20 25 20 30 0 5 19 29 41 54 22 25 47 57 55 72
8 16 19 28 24 28 5 0 12 11 16 25 3 14 16 32 27 40 12 8 18 15 14 15 -4 0 1
10 12 22 11 12 25 36 32 55 6 18 15 33 20 33 6 0 7 5 4 10 -3 6 -3 10 2 10 4
0 14 15 22 33 7 17 21 48 30 67 10 19 18 50 19 69 2 19 7 40 12 46 5 7 8 14 5
16 -2 3 -7 44 -10 93 -3 52 -13 102 -22 120 -10 17 -18 36 -19 41 -4 28 -17
55 -27 55 -6 0 -8 3 -4 6 3 3 -8 31 -24 62 -16 31 -29 62 -29 69 0 7 -4 13
-10 13 -5 0 -10 7 -10 15 0 16 -39 77 -52 83 -4 2 -5 9 -2 16 3 7 -2 18 -10
25 -8 7 -20 28 -26 47 -6 19 -16 34 -21 34 -5 0 -9 7 -9 15 0 8 -5 15 -11 15
-5 0 -8 4 -5 9 3 5 -2 19 -12 32 -10 13 -34 58 -54 99 -105 217 -172 351 -201
405 -18 33 -57 105 -86 160 -28 54 -56 102 -62 106 -6 3 -11 10 -11 15 -1 20
-18 54 -28 54 -5 0 -10 11 -10 25 0 23 -27 61 -77 108 -13 11 -23 24 -23 29 0
5 -10 19 -22 32 -13 13 -30 32 -39 42 -9 11 -35 36 -58 56 -22 21 -41 39 -41
42 0 9 -62 66 -71 66 -5 0 -9 4 -9 9 0 9 -28 22 -59 27 -8 2 -19 11 -24 20
-13 23 -59 66 -122 114 -27 20 -59 47 -69 59 -11 11 -25 21 -33 21 -7 0 -13 3
-13 8 0 4 -17 18 -38 32 -20 14 -43 31 -50 37 -7 7 -16 13 -20 13 -4 0 -19 10
-34 23 -60 50 -68 57 -74 57 -2 0 -17 11 -32 25 -15 14 -32 25 -38 25 -6 0
-17 11 -24 25 -7 14 -16 25 -20 25 -11 0 -90 78 -90 89 0 6 -6 11 -14 11 -8 0
-17 7 -20 16 -4 9 -9 14 -12 11 -3 -3 -19 7 -34 23 -15 16 -31 26 -34 23 -3
-4 -6 -1 -6 5 0 19 -163 102 -235 119 -24 5 -28 6 -85 23 -48 13 -209 20 -216
8z m191 -101 c11 -3 53 -15 92 -27 40 -12 75 -21 79 -20 4 1 10 -2 13 -7 3 -4
26 -19 51 -32 25 -13 52 -32 62 -42 9 -11 21 -19 27 -19 6 0 11 -4 11 -10 0
-5 7 -10 15 -10 8 0 15 -4 15 -9 0 -4 25 -33 55 -64 30 -30 55 -53 55 -50 0 2
12 -10 26 -27 15 -17 29 -29 32 -26 2 3 13 -6 24 -19 11 -14 23 -25 28 -25 5
0 45 -28 90 -62 45 -35 92 -70 104 -78 27 -18 104 -78 129 -101 9 -9 49 -40
87 -70 38 -30 70 -57 70 -61 0 -17 -41 -7 -52 12 -7 11 -17 20 -23 20 -5 0
-23 11 -39 25 -16 14 -33 25 -37 25 -4 0 -14 6 -21 13 -39 39 -393 193 -488
213 -14 3 -50 12 -80 21 -30 9 -59 18 -65 19 -5 1 -23 5 -40 9 -57 12 -170 26
-245 30 -41 2 -77 4 -80 5 -7 3 -180 -1 -220 -4 -108 -9 -178 -21 -295 -48
-71 -17 -134 -34 -140 -38 -5 -5 -30 -13 -55 -20 -59 -15 -199 -70 -206 -81
-3 -5 -17 -9 -32 -9 -26 1 -26 1 -6 13 24 14 87 72 148 135 90 95 216 212 228
212 4 0 13 7 22 15 21 21 152 97 206 119 25 10 59 25 75 32 17 7 42 15 55 18
14 3 48 11 75 19 48 13 206 16 250 4z m-1387 -775 c2 -6 -6 -10 -17 -9 -11 1
-18 3 -16 6 3 2 0 10 -6 18 -10 11 -8 12 12 5 12 -5 25 -14 27 -20z m27 -22
c-3 -4 2 -13 10 -20 8 -7 15 -17 15 -23 0 -5 -8 0 -19 11 -10 12 -24 22 -31
22 -10 0 -10 3 0 15 12 15 35 11 25 -5z m1363 -511 c26 -6 60 -13 77 -16 44
-7 194 -63 243 -90 23 -13 42 -21 42 -17 0 4 7 1 15 -6 12 -10 18 -10 32 1 11
10 14 10 9 2 -4 -8 -1 -13 8 -13 9 0 16 -9 16 -20 0 -11 5 -20 10 -20 6 0 19
-9 30 -20 11 -11 20 -19 20 -17 0 5 94 -79 167 -149 34 -33 63 -58 63 -55 0 3
12 -12 27 -34 34 -51 53 -70 77 -78 11 -5 16 -13 12 -22 -3 -8 -1 -15 4 -15 6
0 10 -6 10 -14 0 -8 6 -27 14 -43 39 -80 47 -101 48 -123 1 -14 10 -40 20 -57
10 -18 20 -43 22 -55 3 -13 8 -34 11 -48 4 -14 8 -41 10 -60 2 -19 6 -51 9
-70 6 -42 6 -181 1 -230 -7 -71 -44 -192 -66 -218 -8 -9 -14 -24 -13 -32 1
-20 -24 -70 -35 -70 -9 0 -35 -51 -33 -62 1 -5 -3 -8 -9 -8 -5 0 -8 -4 -5 -9
8 -12 -55 -132 -72 -139 -9 -3 -48 -37 -88 -76 -40 -39 -106 -102 -148 -141
-41 -38 -75 -76 -75 -82 -1 -7 -5 -13 -10 -13 -5 0 -28 -20 -52 -45 -23 -24
-46 -42 -51 -39 -4 3 -8 1 -8 -3 0 -8 -101 -52 -130 -56 -8 -2 -21 -6 -28 -11
-7 -4 -24 -10 -38 -12 -13 -2 -36 -6 -51 -10 -16 -3 -39 -7 -53 -9 -14 -1 -25
-4 -25 -5 0 -1 -20 -4 -45 -5 -25 -2 -47 -4 -50 -5 -3 -1 -8 -2 -12 -1 -4 0
-40 3 -80 6 -180 12 -210 15 -227 24 -10 6 -21 8 -25 4 -3 -3 -24 1 -46 10
-22 10 -57 24 -77 32 -21 9 -42 15 -47 15 -5 -1 -12 2 -15 7 -3 5 -31 23 -61
38 -30 16 -67 37 -81 47 -14 9 -29 15 -33 11 -3 -3 -6 -1 -6 6 0 7 -4 9 -10 6
-6 -3 -10 4 -10 17 0 23 -30 58 -50 58 -12 0 -131 119 -168 168 -15 20 -36 45
-47 57 -64 67 -93 104 -88 109 4 3 -1 6 -10 6 -10 0 -17 8 -17 19 0 11 -6 26
-14 34 -19 19 -82 209 -89 269 -3 26 -10 55 -15 65 -5 10 -8 37 -8 61 1 23 -2
42 -7 42 -4 0 -4 8 2 17 5 10 5 26 0 40 -6 15 -5 23 2 23 8 0 8 4 0 14 -7 8
-8 17 -3 20 10 6 8 48 -4 67 -5 8 -3 9 5 5 8 -5 11 -3 10 5 -3 17 6 53 37 149
13 41 25 84 27 96 1 11 13 33 25 49 22 28 26 39 23 63 -3 24 58 138 81 151 13
6 36 31 50 54 41 65 265 287 288 287 6 0 10 4 10 9 0 4 21 19 48 32 26 13 49
27 50 32 2 4 11 7 21 7 9 0 27 7 39 16 12 8 22 12 22 8 0 -3 6 -2 13 3 14 11
108 40 152 47 17 2 52 9 80 14 27 6 53 8 57 6 3 -2 9 0 12 5 8 12 223 4 284
-10z m-2072 -328 c-23 -46 -46 -104 -46 -114 0 -8 -3 -17 -7 -21 -5 -4 -8 -11
-9 -14 0 -4 -6 -27 -14 -52 -7 -25 -13 -49 -11 -54 1 -4 -2 -13 -7 -20 -5 -6
-8 -21 -7 -33 1 -13 -2 -23 -6 -23 -7 0 -20 -62 -21 -95 0 -5 -4 -17 -9 -26
-12 -24 -21 -115 -22 -246 -1 -62 -5 -113 -8 -113 -4 0 -5 -15 -3 -32 3 -18 5
-59 7 -90 1 -32 5 -58 8 -58 4 0 7 -10 7 -22 1 -33 15 -135 29 -203 3 -16 7
-40 8 -51 2 -12 8 -31 14 -43 7 -11 9 -21 6 -21 -4 0 -3 -6 2 -12 4 -7 9 -22
10 -33 2 -10 7 -22 11 -25 4 -3 8 -16 8 -30 1 -14 4 -34 7 -45 3 -11 7 -27 9
-35 1 -8 7 -18 11 -21 5 -3 10 -12 11 -20 5 -26 17 -54 41 -100 13 -26 21 -50
18 -53 -9 -9 -33 -7 -31 2 2 4 -44 55 -101 113 -58 57 -110 111 -117 119 -26
31 -157 256 -185 317 -42 90 -71 215 -70 303 1 86 4 104 31 193 23 73 124 274
149 297 4 3 15 22 25 43 11 20 23 37 28 37 4 0 8 6 8 14 0 8 10 23 23 33 13
10 24 23 26 28 1 6 15 24 31 42 16 17 26 33 23 36 -2 3 5 10 16 17 12 6 19 15
16 21 -4 5 -3 9 2 9 4 0 21 20 37 43 17 24 36 44 43 44 6 0 11 -3 9 -6z m3924
-288 c7 -16 24 -48 37 -73 13 -25 32 -61 41 -80 9 -19 20 -37 23 -40 3 -3 13
-18 21 -35 54 -105 81 -161 80 -167 -1 -5 3 -8 9 -8 5 0 8 -4 5 -8 -3 -5 4
-19 15 -31 11 -12 17 -26 14 -31 -3 -6 -1 -10 4 -10 6 0 10 -3 9 -7 -1 -5 8
-29 19 -56 12 -26 22 -50 23 -52 0 -3 7 -23 16 -45 15 -37 26 -205 14 -217 -3
-2 -5 -8 -6 -11 0 -4 -8 -25 -17 -46 -10 -22 -20 -50 -23 -63 -4 -13 -10 -26
-15 -29 -5 -3 -7 -10 -4 -15 4 -5 -1 -12 -9 -15 -9 -3 -16 -12 -16 -20 0 -8
-4 -14 -10 -14 -5 0 -10 -7 -10 -15 0 -8 -4 -15 -10 -15 -5 0 -10 -7 -10 -15
0 -8 -5 -15 -11 -15 -5 0 -7 -5 -4 -10 3 -6 -1 -13 -9 -16 -9 -3 -16 -10 -16
-15 0 -4 -50 -75 -112 -156 -105 -139 -128 -167 -170 -214 -10 -10 -16 -19
-13 -19 2 0 -22 -27 -55 -60 -33 -33 -57 -60 -55 -60 2 0 -33 -37 -78 -83 -45
-45 -85 -79 -89 -73 -3 5 3 18 13 29 10 12 19 27 19 34 0 7 4 13 8 13 10 0
122 162 135 193 4 11 16 32 27 47 11 15 17 30 13 34 -3 3 -2 6 3 6 6 0 18 19
29 43 10 23 31 70 47 105 15 34 28 64 28 67 0 2 5 16 12 32 6 15 12 30 13 33
2 11 27 86 32 100 13 33 60 269 69 345 10 84 12 360 4 409 -4 23 -11 70 -15
106 -10 92 -13 108 -30 175 -24 91 -24 95 -16 95 4 0 13 -12 21 -27z m-3289
-2153 c55 -51 67 -60 78 -60 5 0 11 -3 13 -7 4 -11 86 -63 98 -63 5 0 10 -3
10 -7 0 -5 10 -13 23 -19 59 -28 152 -80 155 -86 2 -5 12 -8 22 -8 9 0 23 -7
30 -15 7 -9 15 -13 18 -10 3 3 10 1 16 -4 6 -5 29 -14 51 -20 22 -7 49 -16 60
-21 37 -15 150 -49 235 -70 169 -43 261 -54 460 -53 85 0 181 4 213 7 128 14
365 68 467 107 144 54 189 73 243 100 31 16 57 26 57 21 0 -4 4 -2 8 3 18 26
122 81 122 65 0 -5 -21 -28 -47 -52 -26 -24 -66 -63 -88 -87 -22 -25 -50 -55
-61 -67 -12 -13 -19 -25 -16 -28 3 -3 0 -6 -5 -6 -12 0 -103 -133 -103 -150 0
-5 -6 -10 -14 -10 -8 0 -18 -9 -21 -20 -10 -32 -203 -220 -226 -220 -5 0 -9
-5 -9 -11 0 -5 -4 -8 -9 -4 -5 3 -15 -1 -23 -8 -16 -16 -90 -52 -100 -49 -5 1
-8 -2 -8 -7 0 -5 -12 -11 -27 -14 -16 -3 -56 -12 -89 -20 -60 -14 -218 -15
-274 -2 -48 10 -85 17 -97 18 -7 0 -13 3 -13 7 0 3 -8 6 -17 6 -44 2 -100 19
-173 52 -19 9 -38 15 -42 14 -5 -1 -8 3 -8 8 0 6 -4 10 -9 10 -14 0 -91 52
-91 62 0 4 -5 8 -11 8 -5 0 -24 13 -42 30 -18 16 -37 30 -44 30 -6 0 -13 4
-15 9 -4 10 -161 136 -328 263 -63 48 -125 96 -137 107 -12 12 -24 21 -27 21
-2 0 -33 29 -69 65 -36 36 -64 65 -62 65 5 0 -95 99 -103 101 -11 3 -31 33
-32 47 0 19 19 10 61 -28z"/>
<path d="M2588 3543 c-16 -2 -28 -9 -28 -14 0 -6 -4 -8 -8 -5 -9 6 -91 -21
-108 -35 -23 -19 -22 -59 2 -89 31 -36 30 -41 -8 -63 -27 -15 -33 -16 -45 -4
-10 10 -11 20 -4 39 7 18 6 30 -2 41 -16 19 -55 28 -60 13 -2 -6 -15 0 -30 17
-30 31 -42 33 -98 11 -51 -21 -82 -82 -56 -112 18 -22 17 -41 -3 -47 -14 -4
-17 -13 -13 -38 5 -42 -25 -75 -54 -58 -10 6 -13 11 -8 11 6 0 -4 7 -22 15
-17 7 -40 12 -50 10 -10 -2 -28 -4 -40 -4 -12 -1 -29 -8 -37 -17 -9 -8 -20
-13 -25 -10 -12 8 -43 -23 -36 -35 4 -5 2 -9 -3 -9 -11 0 -9 -50 4 -71 5 -8
24 -25 42 -38 17 -12 32 -29 32 -37 0 -8 5 -14 10 -14 6 0 10 -9 10 -19 0 -11
-4 -23 -10 -26 -5 -3 -10 -1 -10 5 0 6 -4 9 -8 6 -5 -3 -28 15 -51 39 -24 25
-48 45 -55 45 -21 0 -56 -40 -56 -63 0 -21 -29 -111 -30 -94 -1 21 -51 -50
-65 -92 -13 -40 -13 -52 -2 -73 14 -27 37 -29 85 -5 41 21 74 8 85 -32 7 -28
5 -36 -12 -47 -19 -14 -21 -24 -6 -57 5 -11 3 -23 -4 -30 -10 -9 -17 -7 -31
11 -10 12 -20 26 -22 31 -2 5 -12 11 -22 13 -31 5 -66 -55 -64 -108 1 -46 30
-90 50 -78 8 5 8 -2 3 -22 -14 -51 -12 -97 7 -135 10 -21 18 -51 18 -68 0 -16
7 -36 15 -45 9 -8 15 -19 14 -23 -2 -9 51 -41 69 -42 8 -1 21 7 30 17 10 10
16 16 15 14 -1 -2 7 -13 18 -25 16 -18 17 -23 5 -36 -16 -19 -11 -60 9 -80 8
-8 35 -22 60 -32 40 -15 47 -15 60 -2 10 9 13 23 9 40 -5 17 -3 24 4 19 6 -3
12 -2 14 4 1 5 13 7 25 4 21 -6 22 -8 8 -34 -8 -16 -20 -30 -27 -33 -10 -4
-10 -6 0 -6 6 -1 12 -10 12 -21 0 -11 5 -20 10 -20 6 0 10 -6 10 -14 0 -8 10
-16 23 -18 13 -2 21 -9 18 -18 -2 -8 -4 -21 -4 -27 0 -7 -5 -13 -10 -13 -6 0
-1 -10 11 -23 12 -13 22 -28 22 -34 0 -21 103 -34 122 -15 10 10 20 49 20 75
-1 11 5 17 16 15 39 -7 61 -54 35 -73 -12 -9 -12 -16 -2 -38 7 -15 18 -27 25
-27 7 0 14 -4 16 -10 2 -5 24 -12 49 -15 42 -5 49 -3 67 20 16 20 19 36 16 81
-2 31 -6 59 -8 63 -3 4 -1 13 5 21 7 12 9 12 9 -4 0 -14 6 -17 24 -14 27 5 43
-16 27 -36 -4 -6 -7 -19 -6 -29 2 -9 0 -15 -5 -12 -8 5 -22 -20 -24 -41 -1 -6
7 -18 17 -28 9 -10 17 -14 17 -10 0 3 6 2 13 -3 6 -5 23 -9 37 -8 14 0 28 -4
32 -9 3 -5 13 -2 22 7 9 9 25 18 35 22 20 6 36 45 19 45 -6 0 -7 7 -4 16 4 11
2 15 -8 11 -18 -7 -35 30 -31 70 3 42 10 50 44 55 26 4 32 0 45 -26 9 -18 11
-32 6 -34 -6 -2 -10 -16 -10 -32 0 -32 10 -37 79 -39 25 -1 49 -4 53 -7 16
-10 58 -11 58 -2 0 5 5 6 10 3 6 -3 10 -1 10 6 0 7 3 10 6 6 7 -7 34 17 34 31
0 4 11 19 25 32 14 13 25 29 25 36 0 6 6 14 14 17 23 9 12 41 -20 56 -35 17
-46 31 -38 51 3 8 8 30 11 49 5 36 23 61 43 61 6 0 8 -5 4 -12 -4 -6 -3 -8 4
-5 16 11 44 -4 38 -19 -3 -8 -2 -14 3 -14 4 0 6 -10 4 -23 -7 -34 21 -51 81
-52 64 0 94 24 111 92 13 50 6 73 -21 73 -8 0 -14 5 -14 11 0 5 -4 8 -8 5 -5
-3 -18 2 -30 10 -20 14 -24 35 -11 59 3 6 11 29 19 53 13 42 20 49 34 35 4 -5
13 -8 19 -8 7 0 13 -9 15 -19 9 -44 40 -53 70 -18 11 12 24 22 31 22 6 0 11 9
11 19 0 11 5 23 10 26 15 9 12 27 -2 19 -7 -4 -5 2 5 13 9 11 17 24 17 30 0 6
5 13 10 15 6 2 12 16 14 31 1 15 5 29 8 32 10 10 -17 75 -32 76 -15 2 -31 1
-85 -5 -16 -2 -36 -4 -43 -5 -8 -1 -10 -6 -6 -13 6 -10 5 -10 -8 0 -13 10 -15
26 -9 65 0 5 5 6 11 2 13 -8 65 49 67 76 2 28 11 37 43 43 43 8 61 18 56 32
-3 8 -1 14 4 14 6 0 6 9 1 23 -19 46 -24 62 -23 70 1 4 -3 7 -9 7 -6 0 -9 9
-6 20 3 11 1 20 -5 20 -6 0 -8 9 -5 20 3 13 -1 21 -13 25 -26 8 -65 57 -67 84
-3 32 -23 81 -34 81 -10 0 -33 49 -31 62 3 13 -31 48 -66 69 -24 16 -34 30
-38 60 -6 37 -24 61 -48 65 -6 1 -26 4 -44 7 -34 6 -62 -12 -62 -39 0 -10 -13
-14 -40 -15 -22 -1 -46 -2 -52 -3 -7 -1 -21 1 -30 6 -12 6 -21 2 -30 -10 -22
-31 -48 -35 -57 -9 -5 13 -5 27 1 35 7 7 7 12 1 12 -6 0 -15 10 -20 23 -8 17
-6 30 10 59 l20 38 -24 21 c-22 19 -59 38 -84 43 -5 1 -15 4 -20 8 -6 4 -25 0
-42 -9 -30 -14 -33 -14 -54 6 -13 12 -25 20 -28 20 -3 -1 -18 -4 -33 -6z m109
-131 c-7 -9 -7 -16 1 -24 13 -13 -5 -58 -24 -58 -19 0 -26 16 -26 58 0 42 26
69 47 49 9 -9 10 -16 2 -25z m-862 -552 c3 -5 15 -10 26 -10 10 0 19 -2 19 -4
0 -2 3 -11 6 -19 6 -16 -32 -31 -41 -17 -3 5 -19 11 -35 15 -49 11 -53 45 -5
45 13 0 27 -4 30 -10z"/>
</g>
</svg>
